<?xml version="1.0" encoding="UTF-8"?>
<svg xmlns="http://www.w3.org/2000/svg" xmlns:xlink="http://www.w3.org/1999/xlink" width="90pt" height="90pt" viewBox="0 0 90 90" version="1.1">
<g id="surface1">
<path style=" stroke:none;fill-rule:nonzero;fill:rgb(93.72549%,28.235294%,49.019608%);fill-opacity:1;" d="M 89.601562 44.800781 C 89.601562 54.777344 86.339844 63.992188 80.824219 71.441406 C 78.796875 74.179688 76.464844 76.679688 73.875 78.886719 C 66.050781 85.570312 55.898438 89.601562 44.800781 89.601562 C 38.371094 89.601562 32.261719 88.25 26.742188 85.808594 C 24.351562 84.761719 22.078125 83.503906 19.929688 82.070312 C 18.464844 81.09375 17.0625 80.027344 15.726562 78.886719 C 13.136719 76.679688 10.804688 74.179688 8.777344 71.441406 C 3.261719 63.992188 0 54.777344 0 44.800781 C 0 34.824219 3.261719 25.609375 8.777344 18.160156 C 12.25 13.472656 16.621094 9.480469 21.628906 6.449219 C 28.390625 2.355469 36.320312 0 44.800781 0 C 44.859375 0 44.917969 0 44.976562 0 C 53.390625 0.03125 61.257812 2.382812 67.972656 6.449219 C 72.980469 9.480469 77.351562 13.472656 80.824219 18.160156 C 86.339844 25.609375 89.601562 34.824219 89.601562 44.800781 Z M 89.601562 44.800781 "/>
<path style=" stroke:none;fill-rule:nonzero;fill:rgb(100%,40%,54.901961%);fill-opacity:1;" d="M 83.410156 38.609375 C 83.410156 47.203125 80.597656 55.148438 75.847656 61.566406 C 74.097656 63.921875 72.085938 66.078125 69.859375 67.984375 C 63.113281 73.738281 54.363281 77.214844 44.800781 77.214844 C 39.261719 77.214844 33.996094 76.050781 29.238281 73.949219 C 27.179688 73.042969 25.21875 71.960938 23.367188 70.726562 C 22.105469 69.878906 20.894531 68.96875 19.746094 67.984375 C 17.515625 66.078125 15.503906 63.921875 13.753906 61.566406 C 9.003906 55.148438 6.191406 47.203125 6.191406 38.609375 C 6.191406 30.011719 9.003906 22.070312 13.753906 15.652344 C 16.75 11.609375 20.515625 8.171875 24.835938 5.558594 C 30.660156 2.03125 37.492188 0 44.800781 0 C 44.851562 0 44.902344 0 44.953125 0 C 52.207031 0.0273438 58.984375 2.054688 64.765625 5.558594 C 69.085938 8.171875 72.851562 11.609375 75.847656 15.652344 C 80.597656 22.070312 83.410156 30.011719 83.410156 38.609375 Z M 83.410156 38.609375 "/>
<path style=" stroke:none;fill-rule:nonzero;fill:rgb(20.392157%,22.745098%,43.137255%);fill-opacity:1;" d="M 80.824219 13.105469 L 80.824219 71.441406 C 78.796875 74.179688 76.464844 76.679688 73.875 78.886719 C 66.050781 85.570312 55.898438 89.601562 44.800781 89.601562 C 38.371094 89.601562 32.261719 88.25 26.742188 85.808594 C 24.351562 84.761719 22.078125 83.503906 19.929688 82.070312 C 18.464844 81.09375 17.0625 80.027344 15.726562 78.886719 C 13.136719 76.679688 10.804688 74.179688 8.777344 71.441406 L 8.777344 13.105469 C 8.777344 9.429688 11.757812 6.449219 15.433594 6.449219 L 74.167969 6.449219 C 77.84375 6.449219 80.824219 9.429688 80.824219 13.105469 Z M 80.824219 13.105469 "/>
<path style=" stroke:none;fill-rule:nonzero;fill:rgb(94.117647%,94.117647%,94.117647%);fill-opacity:1;" d="M 73.875 25.640625 L 73.875 78.886719 C 66.050781 85.570312 55.898438 89.601562 44.800781 89.601562 C 38.371094 89.601562 32.261719 88.25 26.742188 85.808594 C 24.351562 84.761719 22.078125 83.503906 19.929688 82.070312 C 18.464844 81.09375 17.0625 80.027344 15.726562 78.886719 L 15.726562 25.640625 C 15.726562 23.320312 17.605469 21.445312 19.917969 21.445312 L 69.679688 21.445312 C 71.996094 21.445312 73.875 23.320312 73.875 25.640625 Z M 73.875 25.640625 "/>
<path style=" stroke:none;fill-rule:nonzero;fill:rgb(94.901961%,68.235294%,35.294118%);fill-opacity:1;" d="M 62.628906 8.242188 L 62.628906 20.019531 C 62.628906 22.222656 60.847656 24.003906 58.644531 24.003906 L 30.957031 24.003906 C 28.753906 24.003906 26.96875 22.222656 26.96875 20.019531 L 26.96875 8.242188 C 26.96875 6.039062 28.753906 4.253906 30.957031 4.253906 L 37.925781 4.253906 C 39.183594 1.734375 41.789062 0 44.800781 0 C 45.265625 0 45.726562 0.0429688 46.171875 0.125 C 48.277344 0.5 50.085938 1.742188 51.21875 3.460938 C 51.234375 3.484375 51.246094 3.503906 51.257812 3.527344 C 51.367188 3.691406 51.464844 3.867188 51.558594 4.039062 C 51.601562 4.113281 51.640625 4.1875 51.671875 4.253906 L 58.644531 4.253906 C 60.847656 4.253906 62.628906 6.039062 62.628906 8.242188 Z M 62.628906 8.242188 "/>
<path style=" stroke:none;fill-rule:nonzero;fill:rgb(97.647059%,87.45098%,45.098039%);fill-opacity:1;" d="M 62.628906 8.242188 L 62.628906 20.019531 C 62.628906 22.222656 60.847656 24.003906 58.644531 24.003906 L 33.699219 24.003906 C 31.496094 24.003906 29.714844 22.222656 29.714844 20.019531 L 29.714844 8.242188 C 29.714844 6.039062 31.496094 4.253906 33.699219 4.253906 L 37.925781 4.253906 C 39.183594 1.734375 41.789062 0 44.800781 0 C 45.265625 0 45.726562 0.0429688 46.171875 0.125 C 48.277344 0.5 50.085938 1.742188 51.21875 3.460938 C 51.234375 3.484375 51.246094 3.503906 51.257812 3.527344 C 51.375 3.714844 51.476562 3.890625 51.558594 4.039062 C 51.601562 4.113281 51.640625 4.1875 51.671875 4.253906 L 58.644531 4.253906 C 60.847656 4.253906 62.628906 6.039062 62.628906 8.242188 Z M 62.628906 8.242188 "/>
<path style=" stroke:none;fill-rule:nonzero;fill:rgb(20.392157%,22.745098%,43.137255%);fill-opacity:1;" d="M 47.453125 6.265625 C 47.453125 7.730469 46.265625 8.917969 44.800781 8.917969 C 43.335938 8.917969 42.148438 7.730469 42.148438 6.265625 C 42.148438 4.804688 43.335938 3.617188 44.800781 3.617188 C 46.265625 3.617188 47.453125 4.804688 47.453125 6.265625 Z M 47.453125 6.265625 "/>
<path style=" stroke:none;fill-rule:nonzero;fill:rgb(94.901961%,68.235294%,35.294118%);fill-opacity:1;" d="M 54.675781 18.152344 L 34.925781 18.152344 C 33.863281 18.152344 33.003906 17.292969 33.003906 16.234375 C 33.003906 15.171875 33.863281 14.3125 34.925781 14.3125 L 54.675781 14.3125 C 55.738281 14.3125 56.597656 15.171875 56.597656 16.234375 C 56.597656 17.292969 55.738281 18.152344 54.675781 18.152344 Z M 54.675781 18.152344 "/>
<path style=" stroke:none;fill-rule:nonzero;fill:rgb(34.509804%,59.215686%,81.960784%);fill-opacity:1;" d="M 33.28125 46.3125 L 21.757812 46.3125 C 20.75 46.3125 19.929688 45.492188 19.929688 44.484375 L 19.929688 32.960938 C 19.929688 31.957031 20.75 31.136719 21.757812 31.136719 L 33.28125 31.136719 C 34.289062 31.136719 35.109375 31.957031 35.109375 32.960938 L 35.109375 44.484375 C 35.109375 45.492188 34.289062 46.3125 33.28125 46.3125 Z M 23.589844 42.652344 L 31.453125 42.652344 L 31.453125 34.792969 L 23.589844 34.792969 Z M 23.589844 42.652344 "/>
<path style=" stroke:none;fill-rule:nonzero;fill:rgb(28.235294%,29.411765%,49.803922%);fill-opacity:1;" d="M 51.75 36.988281 L 40.226562 36.988281 C 39.21875 36.988281 38.398438 36.167969 38.398438 35.160156 C 38.398438 34.148438 39.21875 33.328125 40.226562 33.328125 L 51.75 33.328125 C 52.757812 33.328125 53.578125 34.148438 53.578125 35.160156 C 53.578125 36.167969 52.757812 36.988281 51.75 36.988281 Z M 51.75 36.988281 "/>
<path style=" stroke:none;fill-rule:nonzero;fill:rgb(28.235294%,29.411765%,49.803922%);fill-opacity:1;" d="M 66.011719 44.121094 L 40.230469 44.121094 C 39.21875 44.121094 38.398438 43.300781 38.398438 42.289062 C 38.398438 41.28125 39.21875 40.460938 40.230469 40.460938 L 66.011719 40.460938 C 67.023438 40.460938 67.84375 41.28125 67.84375 42.289062 C 67.84375 43.300781 67.023438 44.121094 66.011719 44.121094 Z M 66.011719 44.121094 "/>
<path style=" stroke:none;fill-rule:nonzero;fill:rgb(34.509804%,59.215686%,81.960784%);fill-opacity:1;" d="M 33.28125 66.0625 L 21.757812 66.0625 C 20.75 66.0625 19.929688 65.246094 19.929688 64.234375 L 19.929688 52.714844 C 19.929688 51.703125 20.75 50.882812 21.757812 50.882812 L 33.28125 50.882812 C 34.289062 50.882812 35.109375 51.703125 35.109375 52.714844 L 35.109375 64.234375 C 35.109375 65.246094 34.289062 66.0625 33.28125 66.0625 Z M 23.589844 62.40625 L 31.453125 62.40625 L 31.453125 54.542969 L 23.589844 54.542969 Z M 23.589844 62.40625 "/>
<path style=" stroke:none;fill-rule:nonzero;fill:rgb(28.235294%,29.411765%,49.803922%);fill-opacity:1;" d="M 51.75 56.734375 L 40.226562 56.734375 C 39.21875 56.734375 38.398438 55.914062 38.398438 54.910156 C 38.398438 53.898438 39.21875 53.082031 40.226562 53.082031 L 51.75 53.082031 C 52.757812 53.082031 53.578125 53.898438 53.578125 54.910156 C 53.578125 55.914062 52.757812 56.734375 51.75 56.734375 Z M 51.75 56.734375 "/>
<path style=" stroke:none;fill-rule:nonzero;fill:rgb(28.235294%,29.411765%,49.803922%);fill-opacity:1;" d="M 66.011719 63.867188 L 40.230469 63.867188 C 39.21875 63.867188 38.398438 63.046875 38.398438 62.039062 C 38.398438 61.03125 39.21875 60.207031 40.230469 60.207031 L 66.011719 60.207031 C 67.023438 60.207031 67.84375 61.03125 67.84375 62.039062 C 67.84375 63.046875 67.023438 63.867188 66.011719 63.867188 Z M 66.011719 63.867188 "/>
<path style=" stroke:none;fill-rule:nonzero;fill:rgb(34.509804%,59.215686%,81.960784%);fill-opacity:1;" d="M 33.28125 70.636719 L 21.757812 70.636719 C 20.75 70.636719 19.929688 71.453125 19.929688 72.464844 L 19.929688 82.070312 C 22.078125 83.503906 24.351562 84.761719 26.742188 85.808594 L 33.28125 85.808594 C 34.289062 85.808594 35.109375 84.992188 35.109375 83.980469 L 35.109375 72.464844 C 35.109375 71.453125 34.289062 70.636719 33.28125 70.636719 Z M 31.449219 82.15625 L 23.589844 82.15625 L 23.589844 74.289062 L 31.449219 74.289062 Z M 31.449219 82.15625 "/>
<path style=" stroke:none;fill-rule:nonzero;fill:rgb(28.235294%,29.411765%,49.803922%);fill-opacity:1;" d="M 51.75 76.484375 L 40.226562 76.484375 C 39.21875 76.484375 38.398438 75.667969 38.398438 74.65625 C 38.398438 73.644531 39.21875 72.828125 40.226562 72.828125 L 51.75 72.828125 C 52.757812 72.828125 53.578125 73.644531 53.578125 74.65625 C 53.578125 75.667969 52.757812 76.484375 51.75 76.484375 Z M 51.75 76.484375 "/>
<path style=" stroke:none;fill-rule:nonzero;fill:rgb(28.235294%,29.411765%,49.803922%);fill-opacity:1;" d="M 66.011719 83.617188 L 40.230469 83.617188 C 39.21875 83.617188 38.398438 82.796875 38.398438 81.789062 C 38.398438 80.777344 39.21875 79.960938 40.230469 79.960938 L 66.011719 79.960938 C 67.023438 79.960938 67.84375 80.777344 67.84375 81.789062 C 67.84375 82.796875 67.023438 83.617188 66.011719 83.617188 Z M 66.011719 83.617188 "/>
<path style=" stroke:none;fill-rule:nonzero;fill:rgb(93.72549%,28.235294%,49.019608%);fill-opacity:1;" d="M 27.429688 64.417969 C 26.820312 64.417969 26.246094 64.113281 25.910156 63.601562 L 20.054688 54.824219 C 19.496094 53.984375 19.726562 52.847656 20.566406 52.289062 C 21.40625 51.726562 22.539062 51.957031 23.101562 52.796875 L 27.160156 58.886719 L 32.359375 47.90625 C 32.792969 46.996094 33.878906 46.605469 34.792969 47.035156 C 35.707031 47.46875 36.097656 48.5625 35.664062 49.472656 L 29.082031 63.371094 C 28.800781 63.964844 28.21875 64.363281 27.5625 64.414062 C 27.519531 64.414062 27.472656 64.417969 27.429688 64.417969 Z M 27.429688 64.417969 "/>
</g>
</svg>
