<?xml version="1.0" encoding="UTF-8"?>
<svg xmlns="http://www.w3.org/2000/svg" xmlns:xlink="http://www.w3.org/1999/xlink" width="90pt" height="90pt" viewBox="0 0 90 90" version="1.1">
<g id="surface1">
<path style=" stroke:none;fill-rule:nonzero;fill:rgb(93.72549%,28.235294%,49.019608%);fill-opacity:1;" d="M 90 45 C 90 55.019531 86.722656 64.277344 81.183594 71.757812 C 79.148438 74.507812 76.804688 77.019531 74.203125 79.238281 C 66.34375 85.949219 56.148438 90 45 90 C 38.542969 90 32.40625 88.640625 26.859375 86.191406 C 24.460938 85.136719 22.175781 83.875 20.019531 82.433594 C 18.546875 81.453125 17.136719 80.382812 15.796875 79.238281 C 13.195312 77.019531 10.851562 74.507812 8.816406 71.757812 C 3.277344 64.277344 0 55.019531 0 45 C 0 34.980469 3.277344 25.722656 8.816406 18.242188 C 12.304688 13.53125 16.695312 9.523438 21.726562 6.476562 C 28.515625 2.367188 36.480469 0 45 0 C 45.058594 0 45.117188 0 45.175781 0 C 53.628906 0.03125 61.53125 2.394531 68.273438 6.476562 C 73.304688 9.523438 77.695312 13.53125 81.183594 18.242188 C 86.722656 25.722656 90 34.980469 90 45 Z M 90 45 "/>
<path style=" stroke:none;fill-rule:nonzero;fill:rgb(100%,40%,54.901961%);fill-opacity:1;" d="M 83.78125 38.78125 C 83.78125 47.414062 80.957031 55.394531 76.183594 61.839844 C 74.425781 64.207031 72.40625 66.371094 70.167969 68.285156 C 63.394531 74.066406 54.605469 77.558594 45 77.558594 C 39.4375 77.558594 34.148438 76.390625 29.367188 74.277344 C 27.300781 73.367188 25.332031 72.28125 23.472656 71.039062 C 22.203125 70.191406 20.988281 69.273438 19.832031 68.285156 C 17.59375 66.371094 15.574219 64.207031 13.816406 61.839844 C 9.042969 55.394531 6.21875 47.414062 6.21875 38.78125 C 6.21875 30.144531 9.042969 22.167969 13.816406 15.722656 C 16.824219 11.660156 20.605469 8.207031 24.945312 5.582031 C 30.796875 2.039062 37.660156 0 45 0 C 45.050781 0 45.101562 0 45.152344 0 C 52.4375 0.0273438 59.246094 2.0625 65.054688 5.582031 C 69.394531 8.207031 73.175781 11.660156 76.183594 15.722656 C 80.957031 22.167969 83.78125 30.144531 83.78125 38.78125 Z M 83.78125 38.78125 "/>
<path style=" stroke:none;fill-rule:nonzero;fill:rgb(20.392157%,22.745098%,43.137255%);fill-opacity:1;" d="M 81.183594 13.164062 L 81.183594 71.757812 C 79.148438 74.507812 76.804688 77.019531 74.203125 79.238281 C 66.34375 85.949219 56.148438 90 45 90 C 38.542969 90 32.40625 88.640625 26.859375 86.191406 C 24.460938 85.136719 22.175781 83.875 20.019531 82.433594 C 18.546875 81.453125 17.136719 80.382812 15.796875 79.238281 C 13.195312 77.019531 10.851562 74.507812 8.816406 71.757812 L 8.816406 13.164062 C 8.816406 9.472656 11.808594 6.476562 15.503906 6.476562 L 74.496094 6.476562 C 78.191406 6.476562 81.183594 9.472656 81.183594 13.164062 Z M 81.183594 13.164062 "/>
<path style=" stroke:none;fill-rule:nonzero;fill:rgb(94.117647%,94.117647%,94.117647%);fill-opacity:1;" d="M 74.203125 25.753906 L 74.203125 79.238281 C 66.34375 85.949219 56.148438 90 45 90 C 38.542969 90 32.40625 88.640625 26.859375 86.191406 C 24.460938 85.136719 22.175781 83.875 20.019531 82.433594 C 18.546875 81.453125 17.136719 80.382812 15.796875 79.238281 L 15.796875 25.753906 C 15.796875 23.425781 17.683594 21.539062 20.007812 21.539062 L 69.988281 21.539062 C 72.316406 21.539062 74.203125 23.425781 74.203125 25.753906 Z M 74.203125 25.753906 "/>
<path style=" stroke:none;fill-rule:nonzero;fill:rgb(94.901961%,68.235294%,35.294118%);fill-opacity:1;" d="M 62.90625 8.277344 L 62.90625 20.109375 C 62.90625 22.320312 61.117188 24.109375 58.90625 24.109375 L 31.09375 24.109375 C 28.882812 24.109375 27.089844 22.320312 27.089844 20.109375 L 27.089844 8.277344 C 27.089844 6.066406 28.882812 4.273438 31.09375 4.273438 L 38.09375 4.273438 C 39.359375 1.742188 41.976562 0 45 0 C 45.46875 0 45.929688 0.0429688 46.378906 0.125 C 48.492188 0.503906 50.308594 1.75 51.445312 3.476562 C 51.460938 3.5 51.472656 3.519531 51.484375 3.542969 C 51.59375 3.707031 51.695312 3.882812 51.789062 4.058594 C 51.832031 4.132812 51.871094 4.207031 51.902344 4.273438 L 58.90625 4.273438 C 61.117188 4.273438 62.90625 6.066406 62.90625 8.277344 Z M 62.90625 8.277344 "/>
<path style=" stroke:none;fill-rule:nonzero;fill:rgb(97.647059%,87.45098%,45.098039%);fill-opacity:1;" d="M 62.90625 8.277344 L 62.90625 20.109375 C 62.90625 22.320312 61.117188 24.109375 58.90625 24.109375 L 33.847656 24.109375 C 31.636719 24.109375 29.847656 22.320312 29.847656 20.109375 L 29.847656 8.277344 C 29.847656 6.066406 31.636719 4.273438 33.847656 4.273438 L 38.09375 4.273438 C 39.359375 1.742188 41.976562 0 45 0 C 45.46875 0 45.929688 0.0429688 46.378906 0.125 C 48.492188 0.503906 50.308594 1.75 51.445312 3.476562 C 51.460938 3.5 51.472656 3.519531 51.484375 3.542969 C 51.601562 3.730469 51.707031 3.90625 51.789062 4.058594 C 51.832031 4.132812 51.871094 4.207031 51.902344 4.273438 L 58.90625 4.273438 C 61.117188 4.273438 62.90625 6.066406 62.90625 8.277344 Z M 62.90625 8.277344 "/>
<path style=" stroke:none;fill-rule:nonzero;fill:rgb(20.392157%,22.745098%,43.137255%);fill-opacity:1;" d="M 47.664062 6.292969 C 47.664062 7.765625 46.472656 8.957031 45 8.957031 C 43.527344 8.957031 42.335938 7.765625 42.335938 6.292969 C 42.335938 4.824219 43.527344 3.632812 45 3.632812 C 46.472656 3.632812 47.664062 4.824219 47.664062 6.292969 Z M 47.664062 6.292969 "/>
<path style=" stroke:none;fill-rule:nonzero;fill:rgb(94.901961%,68.235294%,35.294118%);fill-opacity:1;" d="M 54.917969 18.234375 L 35.082031 18.234375 C 34.015625 18.234375 33.152344 17.371094 33.152344 16.304688 C 33.152344 15.238281 34.015625 14.375 35.082031 14.375 L 54.917969 14.375 C 55.984375 14.375 56.847656 15.238281 56.847656 16.304688 C 56.847656 17.371094 55.984375 18.234375 54.917969 18.234375 Z M 54.917969 18.234375 "/>
<path style=" stroke:none;fill-rule:nonzero;fill:rgb(34.509804%,59.215686%,81.960784%);fill-opacity:1;" d="M 33.429688 46.519531 L 21.855469 46.519531 C 20.84375 46.519531 20.019531 45.695312 20.019531 44.683594 L 20.019531 33.109375 C 20.019531 32.097656 20.84375 31.273438 21.855469 31.273438 L 33.429688 31.273438 C 34.441406 31.273438 35.265625 32.097656 35.265625 33.109375 L 35.265625 44.683594 C 35.265625 45.695312 34.441406 46.519531 33.429688 46.519531 Z M 23.695312 42.84375 L 31.59375 42.84375 L 31.59375 34.949219 L 23.695312 34.949219 Z M 23.695312 42.84375 "/>
<path style=" stroke:none;fill-rule:nonzero;fill:rgb(28.235294%,29.411765%,49.803922%);fill-opacity:1;" d="M 51.980469 37.152344 L 40.40625 37.152344 C 39.394531 37.152344 38.570312 36.328125 38.570312 35.316406 C 38.570312 34.300781 39.394531 33.476562 40.40625 33.476562 L 51.980469 33.476562 C 52.992188 33.476562 53.816406 34.300781 53.816406 35.316406 C 53.816406 36.328125 52.992188 37.152344 51.980469 37.152344 Z M 51.980469 37.152344 "/>
<path style=" stroke:none;fill-rule:nonzero;fill:rgb(28.235294%,29.411765%,49.803922%);fill-opacity:1;" d="M 66.304688 44.316406 L 40.410156 44.316406 C 39.394531 44.316406 38.570312 43.492188 38.570312 42.476562 C 38.570312 41.464844 39.394531 40.640625 40.410156 40.640625 L 66.304688 40.640625 C 67.320312 40.640625 68.144531 41.464844 68.144531 42.476562 C 68.144531 43.492188 67.320312 44.316406 66.304688 44.316406 Z M 66.304688 44.316406 "/>
<path style=" stroke:none;fill-rule:nonzero;fill:rgb(34.509804%,59.215686%,81.960784%);fill-opacity:1;" d="M 33.429688 66.355469 L 21.855469 66.355469 C 20.84375 66.355469 20.019531 65.535156 20.019531 64.519531 L 20.019531 52.949219 C 20.019531 51.933594 20.84375 51.109375 21.855469 51.109375 L 33.429688 51.109375 C 34.441406 51.109375 35.265625 51.933594 35.265625 52.949219 L 35.265625 64.519531 C 35.265625 65.535156 34.441406 66.355469 33.429688 66.355469 Z M 23.695312 62.683594 L 31.59375 62.683594 L 31.59375 54.785156 L 23.695312 54.785156 Z M 23.695312 62.683594 "/>
<path style=" stroke:none;fill-rule:nonzero;fill:rgb(28.235294%,29.411765%,49.803922%);fill-opacity:1;" d="M 51.980469 56.988281 L 40.40625 56.988281 C 39.394531 56.988281 38.570312 56.164062 38.570312 55.152344 C 38.570312 54.136719 39.394531 53.316406 40.40625 53.316406 L 51.980469 53.316406 C 52.992188 53.316406 53.816406 54.136719 53.816406 55.152344 C 53.816406 56.164062 52.992188 56.988281 51.980469 56.988281 Z M 51.980469 56.988281 "/>
<path style=" stroke:none;fill-rule:nonzero;fill:rgb(28.235294%,29.411765%,49.803922%);fill-opacity:1;" d="M 66.304688 64.152344 L 40.410156 64.152344 C 39.394531 64.152344 38.570312 63.328125 38.570312 62.316406 C 38.570312 61.300781 39.394531 60.476562 40.410156 60.476562 L 66.304688 60.476562 C 67.320312 60.476562 68.144531 61.300781 68.144531 62.316406 C 68.144531 63.328125 67.320312 64.152344 66.304688 64.152344 Z M 66.304688 64.152344 "/>
<path style=" stroke:none;fill-rule:nonzero;fill:rgb(34.509804%,59.215686%,81.960784%);fill-opacity:1;" d="M 33.429688 70.949219 L 21.855469 70.949219 C 20.84375 70.949219 20.019531 71.769531 20.019531 72.785156 L 20.019531 82.433594 C 22.175781 83.875 24.460938 85.136719 26.859375 86.191406 L 33.429688 86.191406 C 34.441406 86.191406 35.265625 85.371094 35.265625 84.355469 L 35.265625 72.785156 C 35.265625 71.769531 34.441406 70.949219 33.429688 70.949219 Z M 31.589844 82.519531 L 23.695312 82.519531 L 23.695312 74.621094 L 31.589844 74.621094 Z M 31.589844 82.519531 "/>
<path style=" stroke:none;fill-rule:nonzero;fill:rgb(28.235294%,29.411765%,49.803922%);fill-opacity:1;" d="M 51.980469 76.824219 L 40.40625 76.824219 C 39.394531 76.824219 38.570312 76.003906 38.570312 74.988281 C 38.570312 73.972656 39.394531 73.152344 40.40625 73.152344 L 51.980469 73.152344 C 52.992188 73.152344 53.816406 73.972656 53.816406 74.988281 C 53.816406 76.003906 52.992188 76.824219 51.980469 76.824219 Z M 51.980469 76.824219 "/>
<path style=" stroke:none;fill-rule:nonzero;fill:rgb(28.235294%,29.411765%,49.803922%);fill-opacity:1;" d="M 66.304688 83.988281 L 40.410156 83.988281 C 39.394531 83.988281 38.570312 83.164062 38.570312 82.152344 C 38.570312 81.136719 39.394531 80.316406 40.410156 80.316406 L 66.304688 80.316406 C 67.320312 80.316406 68.144531 81.136719 68.144531 82.152344 C 68.144531 83.164062 67.320312 83.988281 66.304688 83.988281 Z M 66.304688 83.988281 "/>
<path style=" stroke:none;fill-rule:nonzero;fill:rgb(93.72549%,28.235294%,49.019608%);fill-opacity:1;" d="M 27.550781 64.703125 C 26.941406 64.703125 26.363281 64.398438 26.023438 63.882812 L 20.144531 55.066406 C 19.582031 54.222656 19.8125 53.082031 20.65625 52.519531 C 21.5 51.957031 22.640625 52.1875 23.203125 53.03125 L 27.28125 59.148438 L 32.503906 48.121094 C 32.9375 47.203125 34.03125 46.8125 34.949219 47.246094 C 35.867188 47.679688 36.257812 48.777344 35.824219 49.691406 L 29.210938 63.652344 C 28.929688 64.25 28.34375 64.648438 27.683594 64.699219 C 27.640625 64.699219 27.59375 64.703125 27.550781 64.703125 Z M 27.550781 64.703125 "/>
</g>
</svg>
